<?xml version="1.0" encoding="UTF-8" standalone="no"?>
<!-- Created with Inkscape (http://www.inkscape.org/) -->

<svg
   width="199.26631mm"
   height="201.16524mm"
   viewBox="0 0 199.26631 201.16524"
   version="1.1"
   id="svg1"
   xml:space="preserve"
   sodipodi:docname="logo.svg"
   inkscape:version="1.4.2 (f4327f4, 2025-05-13)"
   xmlns:inkscape="http://www.inkscape.org/namespaces/inkscape"
   xmlns:sodipodi="http://sodipodi.sourceforge.net/DTD/sodipodi-0.dtd"
   xmlns="http://www.w3.org/2000/svg"
   xmlns:svg="http://www.w3.org/2000/svg"><sodipodi:namedview
     id="namedview1"
     pagecolor="#ffffff"
     bordercolor="#000000"
     borderopacity="0.25"
     inkscape:showpageshadow="2"
     inkscape:pageopacity="0.0"
     inkscape:pagecheckerboard="0"
     inkscape:deskcolor="#d1d1d1"
     inkscape:document-units="mm"
     inkscape:zoom="1.0614098"
     inkscape:cx="376.38621"
     inkscape:cy="380.15478"
     inkscape:window-width="1920"
     inkscape:window-height="1009"
     inkscape:window-x="-8"
     inkscape:window-y="-8"
     inkscape:window-maximized="1"
     inkscape:current-layer="svg1" /><defs
     id="defs1" /><g
     id="layer1"
     transform="translate(-7.6325553,-2.4581185)"
     style="fill:#1f6dd9;fill-opacity:1"><path
       style="fill:#1f6dd9;fill-opacity:1"
       d="M 101.31587,203.4969 C 94.694083,202.96893 88.481313,201.98019 83.107233,200.59906 57.692533,194.06755 35.734143,177.69464 21.93491,154.98691 19.8976,151.63436 16.597672,145.0299 14.959885,141.02713 5.8299792,118.71354 5.2081562,93.129375 13.228314,69.783715 18.43285,54.633965 26.163473,42.411107 37.857273,30.842968 53.741173,15.129749 73.307993,5.6791361 95.627333,2.9404991 c 5.275767,-0.647349 16.572017,-0.642256 21.957777,0.0099 24.39831,2.954372 45.29261,13.1735359 61.52305,30.0902249 15.38944,16.040131 24.31048,35.105251 27.28656,58.314001 0.6648,5.1844 0.67395,18.013945 0.0166,23.283335 -2.39899,19.23076 -9.59553,36.7374 -20.9193,50.88925 -17.77993,22.22041 -42.62331,35.68732 -69.86092,37.86967 -3.09903,0.2483 -11.70169,0.30841 -14.31523,0.10002 z m 10.77933,-11.66146 c 2.40013,-1.12384 4.19844,-2.96266 5.43984,-5.56239 0.91609,-1.91846 0.97875,-2.2106 0.97875,-4.56322 0,-4.00775 -1.43232,-6.91569 -4.59137,-9.32158 -5.73597,-4.36842 -13.68151,-2.33788 -16.804367,4.29449 -0.67079,1.42463 -0.82742,2.12848 -0.91263,4.10105 -0.16405,3.7974 0.95507,6.46303 3.849767,9.16972 2.38701,2.23197 4.2195,2.87906 7.87527,2.78094 2.0404,-0.0548 2.63653,-0.18345 4.16474,-0.89901 z m -7.87899,-3.34318 c -2.88629,-1.34403 -4.578837,-4.4169 -4.267757,-7.74822 0.274887,-2.94368 1.810347,-5.12224 4.442817,-6.30363 1.40522,-0.63062 1.87931,-0.71591 3.38056,-0.60814 4.15571,0.29833 7.01224,3.49933 7.02982,7.87756 0.009,2.22044 -0.54908,3.64079 -2.06564,5.25792 -2.01013,2.14343 -5.75259,2.8131 -8.5198,1.52451 z M 93.753133,176.08743 c 0.31268,-0.76398 0.97361,-2.04173 1.46873,-2.83943 0.49512,-0.7977 0.86252,-1.48807 0.81644,-1.53414 -0.0461,-0.0461 -1.31825,-0.36527 -2.82706,-0.70932 -8.73635,-1.99213 -18.35191,-6.70283 -24.30683,-11.90801 l -1.71979,-1.50327 -0.085,0.99493 c -0.0642,0.75059 0.19067,1.55141 1.03764,3.26089 0.93039,1.87784 1.57941,2.72267 3.78921,4.9324 3.58565,3.58554 7.3757,6.0239 12.7207,8.18396 1.84903,0.74724 7.33402,2.38093 8.36979,2.49292 0.0922,0.01 0.42354,-0.60694 0.73622,-1.37093 z m 31.110657,0.5782 c 6.64394,-1.58452 13.09891,-5.06821 17.61726,-9.50788 2.61731,-2.57174 3.96377,-4.48432 4.73242,-6.72215 0.50843,-1.48026 0.69791,-2.80285 0.40154,-2.80285 -0.0744,0 -1.13842,0.8632 -2.36454,1.91822 -5.67145,4.88005 -14.4868,9.20549 -23.10403,11.33649 -1.9311,0.47755 -3.4779,0.93506 -3.43733,1.01668 0.0406,0.0816 0.66806,1.35973 1.39443,2.84025 1.0971,2.23618 1.41024,2.6747 1.84983,2.5905 0.29104,-0.0557 1.60073,-0.35692 2.91042,-0.66926 z m -8.86354,-13.87173 c 9.71776,-1.60087 25.58392,-7.74218 34.97824,-13.539 8.30204,-5.12283 14.94764,-11.3243 18.69787,-17.44829 1.04611,-1.70827 1.06578,-2.03356 0.10045,-1.66181 -2.05647,0.79196 -7.43915,1.33115 -8.65004,0.86649 -0.32444,-0.1245 0.2825,-0.8919 2.56341,-3.24114 3.13252,-3.22636 5.60426,-6.63051 7.38269,-10.16764 1.08809,-2.1641 3.00985,-7.54423 2.77769,-7.77639 -0.0726,-0.0726 -0.78414,0.0577 -1.58131,0.28944 -0.89402,0.2599 -2.45678,0.42135 -4.07834,0.42135 -6.03829,0 -11.0216,-2.40271 -14.54198,-7.01145 -0.7781,-1.01865 -2.6605,-4.292865 -4.18312,-7.276035 -5.345,-10.47214 -9.23055,-15.1937 -14.81244,-17.99948 -2.99491,-1.50541 -5.6753,-2.01207 -8.58686,-1.62313 -1.33186,0.17792 -2.79471,0.57174 -3.61565,0.97339 -1.71731,0.8402 -4.33409,3.58731 -5.36353,5.63067 -2.00733,3.98436 -3.11093,9.83882 -2.8373,15.05144 0.10993,2.094135 0.0744,3.282145 -0.10151,3.390835 -0.1489,0.092 -1.19216,-0.041 -2.31835,-0.29555 -2.56927,-0.58079 -6.70796,-0.58145 -9.14165,-0.001 -0.9913,0.23625 -1.90074,0.42954 -2.02098,0.42954 -0.12025,0 -0.2097,-1.994295 -0.19879,-4.431775 0.0362,-8.08786 -1.786557,-13.94823 -5.496937,-17.6731 -1.87407,-1.88139 -2.90011,-2.41107 -5.76301,-2.97509 -1.75121,-0.34501 -2.47599,-0.36542 -4.17625,-0.1176 -4.04558,0.58965 -6.99913,2.27371 -10.98314,6.26237 -3.30825,3.31212 -5.791,6.98809 -9.30419,13.77582 -3.0509,5.894545 -3.8494,7.123825 -6.02306,9.272475 -1.87962,1.85799 -5.05204,3.55727 -7.94171,4.25392 -2.41546,0.58232 -6.13202,0.58024 -8.2975,-0.005 -0.9256,-0.25 -1.71526,-0.4181 -1.75481,-0.37357 -0.14882,0.16763 0.69086,2.98133 1.47222,4.93325 1.83078,4.57351 5.19688,9.50922 9.20592,13.49865 1.92982,1.92036 2.4059,2.53244 2.12176,2.72782 -0.57855,0.39783 -5.71968,0.0516 -7.70853,-0.51914 -1.2752,-0.36594 -1.78593,-0.4221 -1.78593,-0.19637 0,0.63459 3.0978,4.97143 5.15937,7.22297 5.67133,6.19392 12.11685,10.84781 21.16667,15.28304 10.51492,5.15327 22.62481,9.32555 29.50104,10.16414 1.236927,0.15085 2.665677,0.32478 3.174997,0.3865 1.9084,0.23128 10.54437,-0.10274 12.96459,-0.50144 z m -12.30313,-7.91495 c -5.721197,-1.11762 -9.919957,-4.16581 -13.855247,-10.05854 -2.26168,-3.38664 -3.95756,-6.80222 -7.19197,-14.48491 -1.29575,-3.07778 -2.62617,-5.88365 -2.95649,-6.23526 -0.5151,-0.5483 -0.75859,-0.61559 -1.71081,-0.47279 -0.98966,0.14841 -1.15821,0.0933 -1.552,-0.50773 -1.67298,-2.55329 2.84444,-5.61427 6.43722,-4.36182 0.71217,0.24826 0.88425,0.51742 1.38513,2.16645 0.49163,1.61859 0.79069,2.09701 2.12997,3.4075 2.69055,2.6327 6.65583,4.162 9.92349,3.82722 4.295367,-0.44007 9.110497,-3.24495 9.110497,-5.30699 0,-1.01526 -0.23617,-1.25521 -1.85208,-1.88168 -1.75557,-0.68061 -4.611297,-2.6333 -5.704157,-3.90039 -1.88872,-2.18984 -2.63025,-4.66106 -1.98514,-6.61574 0.92347,-2.79814 5.615997,-4.65521 11.790337,-4.66603 3.21414,-0.006 5.6276,0.47442 7.73603,1.53875 2.78996,1.40837 3.85068,3.38126 3.25325,6.05089 -0.60256,2.69251 -3.22437,5.3725 -7.21808,7.37827 -1.9983,1.0036 -2.31599,1.25533 -2.31599,1.8351 0,1.8068 1.79764,3.12879 6.07801,4.4698 2.50586,0.78507 5.41069,0.9465 7.4183,0.41227 1.86778,-0.49702 4.21802,-1.86643 5.72087,-3.33336 1.15217,-1.12463 1.47379,-1.65839 1.95616,-3.2465 0.34422,-1.13327 0.77284,-2.00524 1.06166,-2.15982 0.26641,-0.14257 1.21132,-0.25923 2.09981,-0.25923 1.87507,0 3.28064,0.60276 4.3392,1.86079 1.3533,1.60831 0.6206,3.68909 -1.16123,3.29774 -0.66564,-0.1462 -0.967,-0.0581 -1.49872,0.43809 -0.87168,0.81344 -1.31049,1.69968 -3.40432,6.87546 -3.88217,9.59644 -6.69965,14.47152 -10.68486,18.48803 -2.53661,2.55654 -4.74204,3.93718 -7.88198,4.9343 -2.53107,0.80376 -6.78916,1.03322 -9.46686,0.51013 z m 7.55875,-4.54503 c 2.27254,-0.66364 4.65727,-2.13741 6.85293,-4.23513 1.11605,-1.06627 2.3548,-2.53694 2.75278,-3.26816 l 0.72359,-1.32948 -1.23767,-1.32317 c -2.938,-3.14097 -8.35999,-4.02111 -11.75816,-1.90869 l -1.21759,0.75689 -1.30815,-0.73646 c -2.53468,-1.42699 -6.290717,-1.4947 -9.177287,-0.16545 -1.51791,0.699 -3.64171,2.64538 -3.63775,3.33387 0.009,1.55259 3.8736,5.81729 6.60614,7.28994 3.562407,1.91988 8.097267,2.55066 11.401167,1.58584 z M 72.542433,104.43031 c -0.81505,-0.47473 -0.61044,-2.52795 0.46236,-4.639615 1.80436,-3.55168 3.66086,-5.35795 6.74754,-6.565 5.04666,-1.97351 10.68719,-0.22813 13.54325,4.19074 1.94071,3.002645 2.24381,5.981885 0.68054,6.689185 -0.86487,0.39131 -1.34283,0.1189 -2.49913,-1.42434 -1.13336,-1.51261 -2.56299,-2.745455 -4.18404,-3.608095 -0.83744,-0.44565 -1.52853,-0.56441 -3.31121,-0.569 -2.03621,-0.005 -2.42994,0.0813 -4.09401,0.89977 -1.34064,0.659405 -2.43471,1.504525 -4.02466,3.108855 -2.21604,2.23608 -2.49605,2.39777 -3.32064,1.9175 z m 66.061077,-1.944 c -2.83621,-2.849005 -4.88974,-3.938255 -7.69144,-4.079725 -1.61378,-0.0815 -2.13832,0.008 -3.38441,0.57867 -1.58709,0.72659 -4.19369,3.008485 -4.81994,4.219515 -0.47016,0.90919 -1.3356,1.2719 -2.14975,0.90096 -1.83704,-0.83697 -0.61539,-5.368685 2.22541,-8.255235 4.53908,-4.61218 11.44739,-4.51156 16.10094,0.23451 2.98743,3.04683 4.48521,7.169265 2.98622,8.219195 -0.32342,0.22654 -0.69137,0.41188 -0.81766,0.41188 -0.12629,0 -1.22851,-1.0034 -2.44937,-2.22977 z M 55.284153,89.443345 c 0.97636,-1.70575 2.24404,-3.80719 2.81705,-4.66988 l 1.04184,-1.56851 -0.66676,-2.53975 c -1.17628,-4.48057 -1.51491,-7.26007 -1.66734,-13.68574 -0.21048,-8.8725 0.45807,-15.15298 2.42142,-22.746986 1.0308,-3.987017 2.94076,-9.072858 3.48581,-9.282014 1.48974,-0.571664 6.69078,6.685552 10.38688,14.49321 1.68506,3.55953 4.14103,9.80267 5.06885,12.88516 0.31958,1.06175 0.65709,1.89214 0.75002,1.84531 0.0929,-0.0468 2.40137,-1.19375 5.12989,-2.54871 2.99669,-1.48814 4.96093,-2.61424 4.96093,-2.8441 0,-1.5294 -7.2037,-13.235425 -12.51897,-20.343368 -6.64885,-8.891278 -10.74557,-12.567707 -14.00445,-12.567707 -2.37835,0 -3.41938,0.990659 -5.36421,5.104702 -2.98207,6.308189 -5.81265,17.185933 -7.15666,27.502643 -0.66471,5.1023 -0.79912,15.39234 -0.26184,20.04473 0.76741,6.64505 2.78536,14.65089 3.57057,14.1656 0.12746,-0.0788 1.0306,-1.53884 2.00697,-3.24459 z m 107.275327,0.50879 c 1.96326,-6.35041 2.5219,-10.85448 2.51697,-20.29334 -0.005,-8.78296 -0.31421,-11.93335 -1.99332,-20.28239 -2.03605,-10.12386 -5.20252,-19.120206 -7.7815,-22.108252 -1.52341,-1.765038 -3.32513,-1.952226 -5.96388,-0.619609 -1.52651,0.770914 -6.61703,5.925606 -9.42774,9.546598 -4.10678,5.290676 -9.76898,14.015533 -12.89373,19.867863 -1.1649,2.18175 -1.42474,2.8685 -1.16453,3.07787 0.18423,0.14822 1.58789,0.85774 3.11925,1.5767 1.53136,0.71896 3.65393,1.8151 4.71682,2.43586 1.0629,0.62076 1.97831,1.08288 2.03426,1.02693 0.056,-0.0559 0.76014,-2.01828 1.56487,-4.36072 3.49869,-10.18427 8.04159,-18.905804 12.11701,-23.262437 2.45773,-2.627316 2.71988,-2.44883 4.53766,3.089453 1.36118,4.147159 2.28118,8.127004 3.1151,13.475684 0.52402,3.36103 0.59659,4.8037 0.58561,11.64166 -0.0136,8.45021 -0.34438,11.43173 -1.76464,15.90414 l -0.63074,1.98621 1.01535,1.57201 c 0.55845,0.86461 1.92669,3.14493 3.04054,5.06739 1.11386,1.92246 2.12376,3.43446 2.24423,3.36 0.12047,-0.0744 0.57605,-1.29018 1.01241,-2.70162 z M 69.286163,71.933875 c 0.8648,-0.87988 1.50613,-1.66602 1.42516,-1.74699 -0.44549,-0.44548 -5.50957,-0.86985 -5.5125,-0.46194 -7.8e-4,0.10914 0.36881,1.11873 0.8213,2.24352 0.95872,2.38313 0.88901,2.38387 3.26604,-0.0346 z m 79.678127,-0.56204 c 0.35092,-0.86363 0.63804,-1.64914 0.63804,-1.74559 0,-0.26672 -3.99393,0.0744 -4.87624,0.41654 l -0.7752,0.30056 1.81599,1.83002 c 2.08261,2.09868 2.01172,2.11645 3.19741,-0.80153 z m -74.410907,-4.07617 1.8125,-1.34103 -0.11512,-1.39683 c -0.20339,-2.46768 -3.00713,-5.67031 -6.8601,-7.83608 l -1.36317,-0.76624 0.1706,1.83558 c 0.32242,3.46904 1.48081,7.06539 3.24946,10.0882 0.41567,0.71044 0.77909,1.06146 0.9775,0.94415 0.1737,-0.10269 1.13145,-0.79019 2.12833,-1.52775 z m 69.081257,-0.15761 c 1.21809,-2.31802 2.13798,-4.99471 2.65722,-7.73196 0.45427,-2.39471 0.50342,-3.37334 0.16942,-3.37334 -0.53609,0 -4.4379,2.78573 -5.66188,4.04235 -1.50915,1.54938 -2.56817,3.59 -2.57071,4.95349 -0.002,0.83607 0.18455,1.07157 1.91564,2.42402 1.05456,0.82389 2.05145,1.5085 2.21533,1.52135 0.16388,0.0129 0.73762,-0.8133 1.27498,-1.83591 z"
       id="path1" /></g></svg>
